HIERARCHY
ROOT Elbow
{
	OFFSET	0.00	0.00	0.00
	CHANNELS 6 Xposition Yposition Zposition Zrotation Xrotation Yrotation
	JOINT L_Wrist
	{
		OFFSET	 0.208349	 0.000000	 0.000000
		CHANNELS 3 Zrotation Xrotation Yrotation
		JOINT L_index_Proximal
		{
			OFFSET	 0.093499	 0.010637	-0.002084
			CHANNELS 3 Zrotation Xrotation Yrotation
			JOINT L_index_b
			{
				OFFSET	 0.033152	 0.000000	 0.000000
				CHANNELS 3 Zrotation Xrotation Yrotation
				JOINT L_index_c
				{
					OFFSET	 0.018651	 0.000000	 0.000000
					CHANNELS 3 Zrotation Xrotation Yrotation
					End Site
					{
						OFFSET	 0.018651	 0.000000	 0.000000
					}
				}
			}
		}
		JOINT L_middle_Proximal
		{
			OFFSET	 0.090632	-0.006115	-0.003750
			CHANNELS 3 Zrotation Xrotation Yrotation
			JOINT L_middle_b
			{
				OFFSET	 0.037195	 0.000000	 0.000000
				CHANNELS 3 Zrotation Xrotation Yrotation
				JOINT L_middle_c
				{
					OFFSET	 0.021943	 0.000000	 0.000000
					CHANNELS 3 Zrotation Xrotation Yrotation
					End Site
					{
						OFFSET	 0.021943	 0.000000	 0.000000
					}
				}
			}
		}
		JOINT L_pinky_Proximal
		{
			OFFSET	 0.074015	-0.035449	-0.000417
			CHANNELS 3 Zrotation Xrotation Yrotation
			JOINT L_pinky_b
			{
				OFFSET	 0.027285	 0.000000	 0.000000
				CHANNELS 3 Zrotation Xrotation Yrotation
				JOINT L_pinky_c
				{
					OFFSET	 0.015093	 0.000000	 0.000000
					CHANNELS 3 Zrotation Xrotation Yrotation
					End Site
					{
						OFFSET	 0.015093	 0.000000	 0.000000
					}
				}
			}
		}
		JOINT L_ring_Proximal
		{
			OFFSET	 0.082801	-0.021859	-0.003750
			CHANNELS 3 Zrotation Xrotation Yrotation
			JOINT L_ring_b
			{
				OFFSET	 0.034478	 0.000000	 0.000000
				CHANNELS 3 Zrotation Xrotation Yrotation
				JOINT L_ring_c
				{
					OFFSET	 0.021377	 0.000000	 0.000000
					CHANNELS 3 Zrotation Xrotation Yrotation
					End Site
					{
						OFFSET	 0.021377	 0.000000	 0.000000
					}
				}
			}
		}
		JOINT L_thumb_Proximal
		{
			OFFSET	 0.030306	 0.018528	 0.004584
			CHANNELS 3 Zrotation Xrotation Yrotation
			JOINT L_thumb_a
			{
				OFFSET	 0.038520	 0.000000	 0.000000
				CHANNELS 3 Zrotation Xrotation Yrotation
				JOINT L_thumb_b
				{
					OFFSET	 0.026310	 0.000000	 0.000000
					CHANNELS 3 Zrotation Xrotation Yrotation
					End Site
					{
						OFFSET	 0.026310	 0.000000	 0.000000
					}
				}
			}
		}
	}
}
MOTION
Frames:    8
Frame Time: 0.01666667
 0.489184	-0.173021	 0.693004	-70.361820	 55.530520	 157.444000	 8.222174	 5.420140	 32.554760	 8.034915	-4.848616	-51.582100	 2.845750	-0.759262	-29.872600	-2.010101	 0.287949	-16.302820	-9.653453	-8.506166	-45.228870	 1.070789	-0.565808	-55.703290	 2.360341	-0.897508	-41.633850	-30.002440	-18.238770	-53.332840	-0.463529	 0.283769	-62.950310	 3.828702	-2.295870	-61.885720	-20.210190	-10.443780	-62.355710	-0.480930	 0.345287	-71.352980	 4.463758	-2.181876	-52.081220	 67.143070	 45.065240	-59.304980	 2.929648	-0.227846	-8.892528	 0.077990	-0.011542	-16.830080
 0.489231	-0.172978	 0.693002	-70.403880	 55.469270	 157.473600	 8.227429	 5.420107	 32.554640	 8.061558	-4.863779	-51.578980	 2.845996	-0.758589	-29.844570	-1.993232	 0.285476	-16.299630	-9.663698	-8.501019	-45.218100	 1.035026	-0.546686	-55.682790	 2.339434	-0.890161	-41.659470	-30.011140	-18.233530	-53.349890	-0.481932	 0.295120	-62.960630	 3.812385	-2.287214	-61.910660	-20.211720	-10.442750	-62.353730	-0.482551	 0.346320	-71.333760	 4.464836	-2.183527	-52.104290	 67.105220	 45.075620	-59.325300	 2.917984	-0.226728	-8.884567	 0.083869	-0.012375	-16.785340
 0.489149	-0.172981	 0.692998	-70.426800	 55.442260	 157.491300	 8.239229	 5.419255	 32.548610	 8.055671	-4.861202	-51.587540	 2.852835	-0.760082	-29.831990	-1.990388	 0.284990	-16.295100	-9.670735	-8.497499	-45.221990	 1.033147	-0.545486	-55.665650	 2.352484	-0.895564	-41.677960	-30.018710	-18.229300	-53.353470	-0.483909	 0.296318	-62.962350	 3.815344	-2.289036	-61.911960	-20.207300	-10.446230	-62.333410	-0.485261	 0.348122	-71.310640	 4.456668	-2.178996	-52.093370	 67.085200	 45.089630	-59.318420	 2.916371	-0.226678	-8.886688	 0.089931	-0.013259	-16.779360
 0.489028	-0.172988	 0.692977	-70.428310	 55.430230	 157.489600	 8.258975	 5.417283	 32.535320	 8.023400	-4.843435	-51.597450	 2.861555	-0.762829	-29.848180	-1.960936	 0.280749	-16.294020	-9.695668	-8.484884	-45.294900	 0.998396	-0.527727	-55.718800	 2.390197	-0.911258	-41.733860	-30.056800	-18.207460	-53.386140	-0.501649	 0.307353	-62.991840	 3.827140	-2.296098	-61.911520	-20.217690	-10.439560	-62.300030	-0.472801	 0.338938	-71.271680	 4.491935	-2.195177	-52.071090	 67.057050	 45.094210	-59.340080	 2.897209	-0.226048	-8.920511	 0.087554	-0.012931	-16.800990
 0.488996	-0.173012	 0.692965	-70.441390	 55.405880	 157.503100	 8.266356	 5.415993	 32.526610	 8.023355	-4.845986	-51.624110	 2.851665	-0.759538	-29.823230	-1.961857	 0.280717	-16.284250	-9.708561	-8.478293	-45.363380	 0.952388	-0.503946	-55.769200	 2.409051	-0.920126	-41.803260	-30.066720	-18.201300	-53.410120	-0.504366	 0.309132	-63.008120	 3.828839	-2.297437	-61.918470	-20.215310	-10.441200	-62.301670	-0.461022	 0.330452	-71.265990	 4.508309	-2.203883	-52.085560	 67.036250	 45.107130	-59.336350	 2.890116	-0.225460	-8.919290	 0.080977	-0.011955	-16.793990
 0.488799	-0.173076	 0.692955	-70.459350	 55.368240	 157.526800	 8.271636	 5.413956	 32.512780	 8.008889	-4.840194	-51.650960	 2.857986	-0.760784	-29.807270	-1.943982	 0.277696	-16.257940	-9.722094	-8.471283	-45.486040	 0.958412	-0.507828	-55.832510	 2.505253	-0.958925	-41.885530	-30.088610	-18.187500	-53.469680	-0.531161	 0.325837	-63.052010	 3.811129	-2.287038	-61.923490	-20.224550	-10.433630	-62.358360	-0.450452	 0.323098	-71.301560	 4.562773	-2.230377	-52.082640	 66.990870	 45.111680	-59.377040	 2.873576	-0.224651	-8.938648	 0.080011	-0.011787	-16.763810
 0.488726	-0.173108	 0.692976	-70.448290	 55.373370	 157.522900	 8.281522	 5.413725	 32.511280	 8.007966	-4.842537	-51.680510	 2.863252	-0.761961	-29.798580	-1.937526	 0.276613	-16.248180	-9.733862	-8.465270	-45.520700	 0.981136	-0.520020	-55.847340	 2.527498	-0.967567	-41.889970	-30.101800	-18.179330	-53.499620	-0.532727	 0.326753	-63.046920	 3.809678	-2.287052	-61.943290	-20.229040	-10.430310	-62.367900	-0.438360	 0.314352	-71.291530	 4.576001	-2.237134	-52.088210	 66.976750	 45.104170	-59.408210	 2.866810	-0.224162	-8.940380	 0.074987	-0.011057	-16.743010
 0.488568	-0.173092	 0.692956	-70.397980	 55.427820	 157.491900	 8.290070	 5.414749	 32.518130	 8.001163	-4.845124	-51.748050	 2.863064	-0.761444	-29.780860	-1.933847	 0.275919	-16.238720	-9.766269	-8.448705	-45.610020	 0.963712	-0.511525	-55.915850	 2.547542	-0.977441	-41.976170	-30.121030	-18.167140	-53.552230	-0.545651	 0.334780	-63.062630	 3.790040	-2.276246	-61.965380	-20.229210	-10.430320	-62.361080	-0.444148	 0.318318	-71.257310	 4.562468	-2.231128	-52.100920	 66.967900	 45.063760	-59.501590	 2.847142	-0.222765	-8.946199	 0.064364	-0.009450	-16.700550
